<svg width="196" height="27" viewBox="0 0 196 27" fill="none" xmlns="http://www.w3.org/2000/svg">
<path d="M6.56543 16.1592V7.20312H8.7627V16.1592C8.7627 17.0088 8.58105 17.7324 8.21777 18.3301C7.85449 18.9277 7.35938 19.3848 6.73242 19.7012C6.10547 20.0176 5.39355 20.1758 4.59668 20.1758C3.78223 20.1758 3.05859 20.0381 2.42578 19.7627C1.79883 19.4873 1.30664 19.0654 0.949219 18.4971C0.591797 17.9287 0.413086 17.208 0.413086 16.335H2.62793C2.62793 16.8389 2.70703 17.2461 2.86523 17.5566C3.0293 17.8613 3.25781 18.084 3.55078 18.2246C3.84961 18.3594 4.19824 18.4268 4.59668 18.4268C4.97754 18.4268 5.31445 18.3418 5.60742 18.1719C5.90625 17.9961 6.14062 17.7412 6.31055 17.4072C6.48047 17.0674 6.56543 16.6514 6.56543 16.1592ZM16.4531 18.0928V13.5576C16.4531 13.2178 16.3916 12.9248 16.2686 12.6787C16.1455 12.4326 15.958 12.2422 15.7061 12.1074C15.46 11.9727 15.1494 11.9053 14.7744 11.9053C14.4287 11.9053 14.1299 11.9639 13.8779 12.0811C13.626 12.1982 13.4297 12.3564 13.2891 12.5557C13.1484 12.7549 13.0781 12.9805 13.0781 13.2324H10.9688C10.9688 12.8574 11.0596 12.4941 11.2412 12.1426C11.4229 11.791 11.6865 11.4775 12.0322 11.2021C12.3779 10.9268 12.791 10.71 13.2715 10.5518C13.752 10.3936 14.291 10.3145 14.8887 10.3145C15.6035 10.3145 16.2363 10.4346 16.7871 10.6748C17.3438 10.915 17.7803 11.2783 18.0967 11.7646C18.4189 12.2451 18.5801 12.8486 18.5801 13.5752V17.8027C18.5801 18.2363 18.6094 18.626 18.668 18.9717C18.7324 19.3115 18.8232 19.6074 18.9404 19.8594V20H16.7695C16.6699 19.7715 16.5908 19.4814 16.5322 19.1299C16.4795 18.7725 16.4531 18.4268 16.4531 18.0928ZM16.7607 14.2168L16.7783 15.5264H15.2578C14.8652 15.5264 14.5195 15.5645 14.2207 15.6406C13.9219 15.7109 13.6729 15.8164 13.4736 15.957C13.2744 16.0977 13.125 16.2676 13.0254 16.4668C12.9258 16.666 12.876 16.8916 12.876 17.1436C12.876 17.3955 12.9346 17.627 13.0518 17.8379C13.1689 18.043 13.3389 18.2041 13.5615 18.3213C13.79 18.4385 14.0654 18.4971 14.3877 18.4971C14.8213 18.4971 15.1992 18.4092 15.5215 18.2334C15.8496 18.0518 16.1074 17.832 16.2949 17.5742C16.4824 17.3105 16.582 17.0615 16.5938 16.8271L17.2793 17.7676C17.209 18.0078 17.0889 18.2656 16.9189 18.541C16.749 18.8164 16.5264 19.0801 16.251 19.332C15.9814 19.5781 15.6562 19.7803 15.2754 19.9385C14.9004 20.0967 14.4668 20.1758 13.9746 20.1758C13.3535 20.1758 12.7998 20.0527 12.3135 19.8066C11.8271 19.5547 11.4463 19.2178 11.1709 18.7959C10.8955 18.3682 10.7578 17.8848 10.7578 17.3457C10.7578 16.8418 10.8516 16.3965 11.0391 16.0098C11.2324 15.6172 11.5137 15.2891 11.8828 15.0254C12.2578 14.7617 12.7148 14.5625 13.2539 14.4277C13.793 14.2871 14.4082 14.2168 15.0996 14.2168H16.7607ZM22.8955 12.5205V20H20.7773V10.4902H22.7725L22.8955 12.5205ZM22.5176 14.8936L21.832 14.8848C21.8379 14.2109 21.9316 13.5928 22.1133 13.0303C22.3008 12.4678 22.5586 11.9844 22.8867 11.5801C23.2207 11.1758 23.6191 10.8652 24.082 10.6484C24.5449 10.4258 25.0605 10.3145 25.6289 10.3145C26.0859 10.3145 26.499 10.3789 26.8682 10.5078C27.2432 10.6309 27.5625 10.833 27.8262 11.1143C28.0957 11.3955 28.3008 11.7617 28.4414 12.2129C28.582 12.6582 28.6523 13.2061 28.6523 13.8564V20H26.5254V13.8477C26.5254 13.3906 26.458 13.0303 26.3232 12.7666C26.1943 12.4971 26.0039 12.3066 25.752 12.1953C25.5059 12.0781 25.1982 12.0195 24.8291 12.0195C24.4658 12.0195 24.1406 12.0957 23.8535 12.248C23.5664 12.4004 23.3232 12.6084 23.124 12.8721C22.9307 13.1357 22.7812 13.4404 22.6758 13.7861C22.5703 14.1318 22.5176 14.501 22.5176 14.8936ZM40.957 7.15918V20H38.8389V9.67285L35.7012 10.7363V8.9873L40.7021 7.15918H40.957ZM47.1094 18.3301H47.2852C48.0938 18.3301 48.7676 18.2246 49.3066 18.0137C49.8516 17.7969 50.2852 17.498 50.6074 17.1172C50.9297 16.7363 51.1611 16.2881 51.3018 15.7725C51.4424 15.2568 51.5127 14.6973 51.5127 14.0938V11.8877C51.5127 11.3662 51.457 10.9092 51.3457 10.5166C51.2402 10.1182 51.0879 9.78711 50.8887 9.52344C50.6953 9.25391 50.4697 9.05176 50.2119 8.91699C49.96 8.78223 49.6875 8.71484 49.3945 8.71484C49.0723 8.71484 48.7822 8.78809 48.5244 8.93457C48.2725 9.0752 48.0586 9.27148 47.8828 9.52344C47.7129 9.76953 47.5811 10.0596 47.4873 10.3936C47.3994 10.7217 47.3555 11.0732 47.3555 11.4482C47.3555 11.7998 47.3965 12.1396 47.4785 12.4678C47.5664 12.79 47.6953 13.0771 47.8652 13.3291C48.0352 13.5811 48.249 13.7803 48.5068 13.9268C48.7646 14.0732 49.0664 14.1465 49.4121 14.1465C49.7402 14.1465 50.042 14.085 50.3174 13.9619C50.5928 13.833 50.833 13.6602 51.0381 13.4434C51.2432 13.2266 51.4043 12.9834 51.5215 12.7139C51.6387 12.4443 51.7031 12.1689 51.7148 11.8877L52.5234 12.1338C52.5234 12.5791 52.4297 13.0186 52.2422 13.4521C52.0605 13.8799 51.8057 14.2725 51.4775 14.6299C51.1553 14.9814 50.7773 15.2627 50.3438 15.4736C49.916 15.6846 49.4502 15.79 48.9463 15.79C48.3369 15.79 47.7979 15.6758 47.3291 15.4473C46.8662 15.2129 46.4795 14.8965 46.1689 14.498C45.8643 14.0996 45.6357 13.6426 45.4834 13.127C45.3311 12.6113 45.2549 12.0693 45.2549 11.501C45.2549 10.8857 45.3486 10.3086 45.5361 9.76953C45.7236 9.23047 45.9961 8.75586 46.3535 8.3457C46.7109 7.92969 47.1445 7.60742 47.6543 7.37891C48.1699 7.14453 48.7529 7.02734 49.4033 7.02734C50.0947 7.02734 50.7012 7.16211 51.2227 7.43164C51.7441 7.70117 52.1836 8.07324 52.541 8.54785C52.8984 9.02246 53.168 9.57324 53.3496 10.2002C53.5312 10.8271 53.6221 11.501 53.6221 12.2217V12.9688C53.6221 13.7246 53.5547 14.4541 53.4199 15.1572C53.2852 15.8545 53.0654 16.502 52.7607 17.0996C52.4619 17.6914 52.0664 18.2129 51.5742 18.6641C51.0879 19.1094 50.4902 19.458 49.7812 19.71C49.0781 19.9561 48.252 20.0791 47.3027 20.0791H47.1094V18.3301ZM72.1934 12.8193V14.5156H60.2314V12.8193H72.1934ZM87.0469 18.3125V20H78.4688V18.5498L82.6348 14.0059C83.0918 13.4902 83.4521 13.0449 83.7158 12.6699C83.9795 12.2949 84.1641 11.958 84.2695 11.6592C84.3809 11.3545 84.4365 11.0586 84.4365 10.7715C84.4365 10.3672 84.3604 10.0127 84.208 9.70801C84.0615 9.39746 83.8447 9.1543 83.5576 8.97852C83.2705 8.79688 82.9219 8.70605 82.5117 8.70605C82.0371 8.70605 81.6387 8.80859 81.3164 9.01367C80.9941 9.21875 80.751 9.50293 80.5869 9.86621C80.4229 10.2236 80.3408 10.6338 80.3408 11.0967H78.2227C78.2227 10.3525 78.3926 9.67285 78.7324 9.05762C79.0723 8.43652 79.5645 7.94434 80.209 7.58105C80.8535 7.21191 81.6299 7.02734 82.5381 7.02734C83.3936 7.02734 84.1201 7.1709 84.7178 7.45801C85.3154 7.74512 85.7695 8.15234 86.0801 8.67969C86.3965 9.20703 86.5547 9.83105 86.5547 10.5518C86.5547 10.9502 86.4902 11.3457 86.3613 11.7383C86.2324 12.1309 86.0479 12.5234 85.8076 12.916C85.5732 13.3027 85.2949 13.6924 84.9727 14.085C84.6504 14.4717 84.2959 14.8643 83.9092 15.2627L81.1406 18.3125H87.0469ZM90.9229 14.0498L89.2354 13.6367L89.9297 7.20312H96.8291V8.99609H91.6875L91.3359 12.1338C91.5352 12.0166 91.8105 11.9023 92.1621 11.791C92.5137 11.6738 92.915 11.6152 93.3662 11.6152C93.9697 11.6152 94.5088 11.7148 94.9834 11.9141C95.4639 12.1074 95.8711 12.3916 96.2051 12.7666C96.5391 13.1357 96.7939 13.5869 96.9697 14.1201C97.1455 14.6475 97.2334 15.2422 97.2334 15.9043C97.2334 16.4961 97.1455 17.0498 96.9697 17.5654C96.7998 18.0811 96.542 18.5352 96.1963 18.9277C95.8506 19.3203 95.4141 19.6279 94.8867 19.8506C94.3652 20.0674 93.7471 20.1758 93.0322 20.1758C92.499 20.1758 91.9863 20.0996 91.4941 19.9473C91.0078 19.7891 90.5713 19.5576 90.1846 19.2529C89.7979 18.9424 89.4873 18.5615 89.2529 18.1104C89.0186 17.6533 88.8838 17.1289 88.8486 16.5371H90.9229C90.9756 16.9531 91.0898 17.3076 91.2656 17.6006C91.4473 17.8877 91.6875 18.1074 91.9863 18.2598C92.2852 18.4121 92.6309 18.4883 93.0234 18.4883C93.3809 18.4883 93.6885 18.4268 93.9463 18.3037C94.2041 18.1748 94.418 17.9932 94.5879 17.7588C94.7637 17.5186 94.8926 17.2373 94.9746 16.915C95.0625 16.5928 95.1064 16.2354 95.1064 15.8428C95.1064 15.4678 95.0566 15.125 94.957 14.8145C94.8633 14.5039 94.7197 14.2344 94.5264 14.0059C94.3389 13.7773 94.1016 13.6016 93.8145 13.4785C93.5273 13.3496 93.1963 13.2852 92.8213 13.2852C92.3174 13.2852 91.9307 13.3584 91.6611 13.5049C91.3975 13.6514 91.1514 13.833 90.9229 14.0498ZM101.039 17.9609L101.03 19.4727C101.03 20.0703 100.881 20.6855 100.582 21.3184C100.283 21.9512 99.8877 22.4727 99.3955 22.8828L98.2617 22.2236C98.4258 21.96 98.5752 21.6934 98.71 21.4238C98.8447 21.1543 98.9531 20.8672 99.0352 20.5625C99.1172 20.2578 99.1582 19.9209 99.1582 19.5518V17.9609H101.039ZM116.016 18.3125V20H107.438V18.5498L111.604 14.0059C112.061 13.4902 112.421 13.0449 112.685 12.6699C112.948 12.2949 113.133 11.958 113.238 11.6592C113.35 11.3545 113.405 11.0586 113.405 10.7715C113.405 10.3672 113.329 10.0127 113.177 9.70801C113.03 9.39746 112.813 9.1543 112.526 8.97852C112.239 8.79688 111.891 8.70605 111.48 8.70605C111.006 8.70605 110.607 8.80859 110.285 9.01367C109.963 9.21875 109.72 9.50293 109.556 9.86621C109.392 10.2236 109.31 10.6338 109.31 11.0967H107.191C107.191 10.3525 107.361 9.67285 107.701 9.05762C108.041 8.43652 108.533 7.94434 109.178 7.58105C109.822 7.21191 110.599 7.02734 111.507 7.02734C112.362 7.02734 113.089 7.1709 113.687 7.45801C114.284 7.74512 114.738 8.15234 115.049 8.67969C115.365 9.20703 115.523 9.83105 115.523 10.5518C115.523 10.9502 115.459 11.3457 115.33 11.7383C115.201 12.1309 115.017 12.5234 114.776 12.916C114.542 13.3027 114.264 13.6924 113.941 14.085C113.619 14.4717 113.265 14.8643 112.878 15.2627L110.109 18.3125H116.016ZM126.009 12.5293V14.6211C126.009 15.623 125.909 16.4785 125.71 17.1875C125.517 17.8906 125.235 18.4619 124.866 18.9014C124.497 19.3408 124.055 19.6631 123.539 19.8682C123.029 20.0732 122.458 20.1758 121.825 20.1758C121.321 20.1758 120.853 20.1113 120.419 19.9824C119.991 19.8535 119.604 19.6514 119.259 19.376C118.913 19.1006 118.617 18.7461 118.371 18.3125C118.131 17.873 117.943 17.3486 117.809 16.7393C117.68 16.1299 117.615 15.4238 117.615 14.6211V12.5293C117.615 11.5215 117.715 10.6719 117.914 9.98047C118.113 9.2832 118.397 8.71777 118.767 8.28418C119.136 7.84473 119.575 7.52539 120.085 7.32617C120.601 7.12695 121.175 7.02734 121.808 7.02734C122.317 7.02734 122.786 7.0918 123.214 7.2207C123.647 7.34375 124.034 7.54004 124.374 7.80957C124.72 8.0791 125.013 8.43066 125.253 8.86426C125.499 9.29199 125.687 9.81055 125.815 10.4199C125.944 11.0234 126.009 11.7266 126.009 12.5293ZM123.891 14.9199V12.2129C123.891 11.7031 123.861 11.2549 123.803 10.8682C123.744 10.4756 123.656 10.1445 123.539 9.875C123.428 9.59961 123.287 9.37695 123.117 9.20703C122.947 9.03125 122.754 8.90527 122.537 8.8291C122.32 8.74707 122.077 8.70605 121.808 8.70605C121.479 8.70605 121.187 8.77051 120.929 8.89941C120.671 9.02246 120.454 9.22168 120.278 9.49707C120.103 9.77246 119.968 10.1357 119.874 10.5869C119.786 11.0322 119.742 11.5742 119.742 12.2129V14.9199C119.742 15.4355 119.771 15.8896 119.83 16.2822C119.889 16.6748 119.977 17.0117 120.094 17.293C120.211 17.5684 120.352 17.7969 120.516 17.9785C120.686 18.1543 120.879 18.2832 121.096 18.3652C121.318 18.4473 121.562 18.4883 121.825 18.4883C122.159 18.4883 122.455 18.4238 122.713 18.2949C122.971 18.166 123.188 17.9609 123.363 17.6797C123.539 17.3926 123.671 17.0205 123.759 16.5635C123.847 16.1064 123.891 15.5586 123.891 14.9199ZM136.477 18.3125V20H127.898V18.5498L132.064 14.0059C132.521 13.4902 132.882 13.0449 133.146 12.6699C133.409 12.2949 133.594 11.958 133.699 11.6592C133.811 11.3545 133.866 11.0586 133.866 10.7715C133.866 10.3672 133.79 10.0127 133.638 9.70801C133.491 9.39746 133.274 9.1543 132.987 8.97852C132.7 8.79688 132.352 8.70605 131.941 8.70605C131.467 8.70605 131.068 8.80859 130.746 9.01367C130.424 9.21875 130.181 9.50293 130.017 9.86621C129.853 10.2236 129.771 10.6338 129.771 11.0967H127.652C127.652 10.3525 127.822 9.67285 128.162 9.05762C128.502 8.43652 128.994 7.94434 129.639 7.58105C130.283 7.21191 131.06 7.02734 131.968 7.02734C132.823 7.02734 133.55 7.1709 134.147 7.45801C134.745 7.74512 135.199 8.15234 135.51 8.67969C135.826 9.20703 135.984 9.83105 135.984 10.5518C135.984 10.9502 135.92 11.3457 135.791 11.7383C135.662 12.1309 135.478 12.5234 135.237 12.916C135.003 13.3027 134.725 13.6924 134.402 14.085C134.08 14.4717 133.726 14.8643 133.339 15.2627L130.57 18.3125H136.477ZM140.353 14.0498L138.665 13.6367L139.359 7.20312H146.259V8.99609H141.117L140.766 12.1338C140.965 12.0166 141.24 11.9023 141.592 11.791C141.943 11.6738 142.345 11.6152 142.796 11.6152C143.399 11.6152 143.938 11.7148 144.413 11.9141C144.894 12.1074 145.301 12.3916 145.635 12.7666C145.969 13.1357 146.224 13.5869 146.399 14.1201C146.575 14.6475 146.663 15.2422 146.663 15.9043C146.663 16.4961 146.575 17.0498 146.399 17.5654C146.229 18.0811 145.972 18.5352 145.626 18.9277C145.28 19.3203 144.844 19.6279 144.316 19.8506C143.795 20.0674 143.177 20.1758 142.462 20.1758C141.929 20.1758 141.416 20.0996 140.924 19.9473C140.438 19.7891 140.001 19.5576 139.614 19.2529C139.228 18.9424 138.917 18.5615 138.683 18.1104C138.448 17.6533 138.313 17.1289 138.278 16.5371H140.353C140.405 16.9531 140.52 17.3076 140.695 17.6006C140.877 17.8877 141.117 18.1074 141.416 18.2598C141.715 18.4121 142.061 18.4883 142.453 18.4883C142.811 18.4883 143.118 18.4268 143.376 18.3037C143.634 18.1748 143.848 17.9932 144.018 17.7588C144.193 17.5186 144.322 17.2373 144.404 16.915C144.492 16.5928 144.536 16.2354 144.536 15.8428C144.536 15.4678 144.486 15.125 144.387 14.8145C144.293 14.5039 144.149 14.2344 143.956 14.0059C143.769 13.7773 143.531 13.6016 143.244 13.4785C142.957 13.3496 142.626 13.2852 142.251 13.2852C141.747 13.2852 141.36 13.3584 141.091 13.5049C140.827 13.6514 140.581 13.833 140.353 14.0498Z" fill="#04090D"/>
<g clip-path="url(#clip0_122_1496)">
<path d="M191 3.5H190V2.5C190 2.23478 189.895 1.98043 189.707 1.79289C189.52 1.60536 189.265 1.5 189 1.5C188.735 1.5 188.48 1.60536 188.293 1.79289C188.105 1.98043 188 2.23478 188 2.5V3.5H180V2.5C180 2.23478 179.895 1.98043 179.707 1.79289C179.52 1.60536 179.265 1.5 179 1.5C178.735 1.5 178.48 1.60536 178.293 1.79289C178.105 1.98043 178 2.23478 178 2.5V3.5H177C175.674 3.50159 174.404 4.02888 173.466 4.96622C172.529 5.90356 172.002 7.17441 172 8.5V20.5C172.002 21.8256 172.529 23.0964 173.466 24.0338C174.404 24.9711 175.674 25.4984 177 25.5H191C192.326 25.4984 193.596 24.9711 194.534 24.0338C195.471 23.0964 195.998 21.8256 196 20.5V8.5C195.998 7.17441 195.471 5.90356 194.534 4.96622C193.596 4.02888 192.326 3.50159 191 3.5ZM174 8.5C174 7.70435 174.316 6.94129 174.879 6.37868C175.441 5.81607 176.204 5.5 177 5.5H191C191.796 5.5 192.559 5.81607 193.121 6.37868C193.684 6.94129 194 7.70435 194 8.5V9.5H174V8.5ZM191 23.5H177C176.204 23.5 175.441 23.1839 174.879 22.6213C174.316 22.0587 174 21.2956 174 20.5V11.5H194V20.5C194 21.2956 193.684 22.0587 193.121 22.6213C192.559 23.1839 191.796 23.5 191 23.5Z" fill="#818181"/>
<path d="M184 18C184.828 18 185.5 17.3284 185.5 16.5C185.5 15.6716 184.828 15 184 15C183.172 15 182.5 15.6716 182.5 16.5C182.5 17.3284 183.172 18 184 18Z" fill="#818181"/>
<path d="M179 18C179.828 18 180.5 17.3284 180.5 16.5C180.5 15.6716 179.828 15 179 15C178.172 15 177.5 15.6716 177.5 16.5C177.5 17.3284 178.172 18 179 18Z" fill="#818181"/>
<path d="M189 18C189.828 18 190.5 17.3284 190.5 16.5C190.5 15.6716 189.828 15 189 15C188.172 15 187.5 15.6716 187.5 16.5C187.5 17.3284 188.172 18 189 18Z" fill="#818181"/>
</g>
<defs>
<clipPath id="clip0_122_1496">
<rect width="24" height="24" fill="white" transform="translate(172 1.5)"/>
</clipPath>
</defs>
</svg>
